<?xml version="1.0" encoding="utf-8"?>
<!-- Generator: Adobe Illustrator 26.0.3, SVG Export Plug-In . SVG Version: 6.00 Build 0)  -->
<svg version="1.1" id="Layer_1" xmlns="http://www.w3.org/2000/svg" xmlns:xlink="http://www.w3.org/1999/xlink" x="0px" y="0px"
	 viewBox="0 0 135.8 30.2" style="enable-background:new 0 0 135.8 30.2;" xml:space="preserve">
<style type="text/css">
	.st0{fill:#FF6600;}
</style>
<g>
	<path class="st0" d="M6.7,14.4c-0.5-0.7-1-1.4-1.5-1.9s-1.1-1-1.6-1.4s-1-0.8-1.5-1.2C1.6,9.5,1.2,9.1,0.9,8.5
		c-0.1-0.2-0.1-0.4,0-0.6c0-0.2,0.1-0.4,0.3-0.5C1.3,7.2,1.4,7.1,1.6,7S2,6.8,2.2,6.8c0.3,0,0.6,0.1,0.9,0.2S3.7,7.3,4,7.5
		S4.5,8,4.7,8.2s0.5,0.4,0.6,0.5C5.4,8.8,5.6,9,5.8,9.2c0.3,0.3,0.6,0.6,0.9,0.9c0.3,0.3,0.7,0.7,1,1C8,11.5,8.3,11.8,8.6,12
		c0.2-0.3,0.3-0.7,0.5-1.2S9.5,10,9.7,9.5s0.3-1,0.4-1.5c0.1-0.5,0.2-1,0.2-1.4c0-0.9,0.1-1.7,0.4-2.3c0.3-0.6,0.7-0.9,1.4-0.9
		c0.1,0,0.2,0,0.4,0c0.1,0,0.3,0.1,0.4,0.1s0.2,0.1,0.3,0.2c0.1,0.1,0.1,0.2,0.1,0.4c0,0.5-0.1,1.1-0.2,2C13.1,7,12.9,8,12.7,9
		s-0.5,2-0.7,3.1c-0.3,1-0.5,2-0.8,2.9s-0.5,1.6-0.7,2.1C10.3,17.7,10.1,18,10,18c-0.3,0-0.5,0-0.7,0c-0.5,0-0.8-0.1-1.1-0.4
		c-0.2-0.3-0.5-0.6-0.6-1c-0.2-0.4-0.3-0.8-0.4-1.2C7.1,15,6.9,14.7,6.7,14.4z"/>
	<path class="st0" d="M15.6,18.7c-0.5,0-0.9-0.2-1.3-0.5c-0.3-0.3-0.5-0.6-0.5-1s0.2-0.7,0.6-0.9c0.4-0.2,0.8-0.4,1.4-0.6
		c0.5-0.2,1-0.3,1.6-0.4c0.5-0.1,0.9-0.3,1.2-0.4L17.1,9c0-0.1-0.1-0.2-0.4-0.2c-0.1,0-0.3,0.1-0.5,0.2c-0.2,0.1-0.5,0.2-0.8,0.3
		s-0.5,0.2-0.8,0.3c-0.2,0.1-0.4,0.2-0.5,0.2c-0.5,0-0.9-0.2-1.2-0.6c-0.3-0.4-0.4-0.9-0.4-1.4c0-0.2,0-0.3,0.1-0.4
		C12.7,7.2,12.8,7.1,13,7c0.4-0.2,0.9-0.4,1.6-0.6c0.7-0.2,1.4-0.5,2.2-0.7c0.8-0.2,1.6-0.5,2.3-0.6s1.3-0.3,1.7-0.3
		c0.5,0,1,0,1.3,0.1C22.5,5,22.8,5.1,23,5.3c0.2,0.2,0.3,0.5,0.3,0.9S23.2,7,23,7.6l-3.4,0.5l1.4,5.5l3.1-0.8
		c0.2,0.1,0.5,0.3,0.8,0.6s0.5,0.7,0.7,1c0.2,0.4,0.2,0.7,0.2,1s-0.2,0.5-0.6,0.6L22,17l0,0c-0.1,0.2-0.2,0.4-0.4,0.6
		c-0.1,0.2-0.4,0.3-0.7,0.4c-0.1,0-0.2,0-0.3,0c-0.1,0-0.3,0-0.5-0.1c-0.2,0-0.3-0.1-0.5-0.1s-0.3,0-0.4,0s-0.3,0-0.6,0.1
		c-0.3,0.1-0.7,0.2-1.1,0.3s-0.8,0.2-1.1,0.3C16,18.6,15.8,18.7,15.6,18.7z M16.5,4.2c-0.3,0-0.5-0.1-0.7-0.2
		c-0.2-0.1-0.3-0.3-0.4-0.5c-0.1-0.2-0.2-0.4-0.2-0.6s-0.1-0.4-0.1-0.5c0-0.6,0.1-1.1,0.4-1.5c0.2-0.3,0.7-0.5,1.3-0.5
		c0.3,0,0.5,0.1,0.8,0.2c0.2,0.1,0.5,0.3,0.7,0.5s0.4,0.4,0.5,0.7S19,2.4,19,2.7s-0.1,0.5-0.3,0.7c-0.2,0.2-0.4,0.3-0.6,0.5
		c-0.2,0.1-0.5,0.2-0.8,0.3C16.9,4.2,16.7,4.2,16.5,4.2z"/>
	<path class="st0" d="M24.5,13.9c0-0.2,0-0.4,0.1-0.6c0.1-0.2,0.2-0.4,0.3-0.6c0.1-0.2,0.3-0.3,0.4-0.4c0.2-0.1,0.3-0.2,0.5-0.2
		c0.3,0,0.6,0.1,1,0.2c0.3,0.1,0.6,0.4,0.9,0.8c0.5,0.7,1.1,1.1,1.9,1.4c0.8,0.2,1.6,0.4,2.4,0.4c0.3,0,0.6,0,0.9-0.1
		c0.4,0,0.6-0.2,0.8-0.4c-0.1-0.2-0.2-0.4-0.5-0.6c-0.2-0.2-0.6-0.4-0.9-0.5c-0.4-0.2-0.8-0.3-1.2-0.5s-0.9-0.3-1.4-0.4
		c-0.6-0.2-1.2-0.4-1.9-0.7c-0.7-0.3-1.4-0.6-2-1s-1.1-0.8-1.5-1.2c-0.4-0.5-0.6-1-0.6-1.5s0.1-0.9,0.4-1.2c0.3-0.4,0.7-0.7,1.1-0.9
		c0.4-0.3,0.9-0.5,1.3-0.6C27,5.1,27.4,5,27.7,4.9c0.3-0.1,0.8-0.2,1.4-0.3c0.6-0.1,1.2-0.1,1.9-0.1c0.5,0,0.9,0,1.4,0.1
		c0.4,0.1,0.8,0.2,1.2,0.4c0.4,0,0.7,0.3,0.9,0.6c0.2,0.3,0.3,0.7,0.3,1.1c0,0.3-0.1,0.7-0.2,1s-0.5,0.7-0.9,1
		c-0.6-0.1-1.1-0.2-1.6-0.4c-0.5-0.1-0.9-0.3-1.2-0.4c-0.4-0.1-0.7-0.2-1-0.3c-0.3-0.1-0.6-0.1-0.9-0.1s-0.7,0.1-1.2,0.2
		S27,8,26.7,8.2c0.5,0.2,1.1,0.5,1.7,0.7c0.7,0.2,1.4,0.4,2.1,0.7c0.7,0.2,1.5,0.5,2.2,0.8c0.7,0.3,1.4,0.6,1.9,1
		c0.6,0.4,1,0.9,1.4,1.5s0.5,1.2,0.5,2.1c0,0.4-0.1,0.8-0.3,1.2c-0.2,0.4-0.5,0.7-0.8,1c-0.4,0.3-0.8,0.5-1.4,0.7
		c-0.5,0.2-1.2,0.2-1.9,0.2c-0.4,0-0.9,0-1.5-0.1c-0.5-0.1-1.1-0.2-1.7-0.3c-0.6-0.1-1.1-0.3-1.7-0.5c-0.5-0.2-1-0.5-1.5-0.8
		c-0.4-0.3-0.8-0.6-1-1C24.6,14.8,24.5,14.4,24.5,13.9z"/>
	<path class="st0" d="M38.1,18.7c-0.5,0-0.9-0.2-1.3-0.5c-0.3-0.3-0.5-0.6-0.5-1s0.2-0.7,0.6-0.9c0.4-0.2,0.8-0.4,1.4-0.6
		c0.5-0.2,1-0.3,1.6-0.4c0.5-0.1,0.9-0.3,1.2-0.4L39.5,9c0-0.1-0.1-0.2-0.4-0.2c-0.1,0-0.3,0.1-0.5,0.2c-0.2,0.1-0.5,0.2-0.8,0.3
		S37.3,9.5,37,9.6c-0.2,0.1-0.4,0.2-0.5,0.2c-0.5,0-0.9-0.2-1.2-0.6C35.1,8.8,35,8.3,35,7.8c0-0.2,0-0.3,0.1-0.4s0.2-0.3,0.3-0.4
		c0.4-0.2,0.9-0.4,1.6-0.6c0.7-0.2,1.4-0.5,2.2-0.7C40,5.4,40.8,5.2,41.5,5s1.3-0.3,1.7-0.3c0.5,0,1,0,1.3,0.1
		c0.4,0.1,0.7,0.2,0.9,0.4c0.2,0.2,0.3,0.5,0.3,0.9s-0.1,0.8-0.3,1.4L42,8.1l1.4,5.5l3.1-0.8c0.2,0.1,0.5,0.3,0.8,0.6s0.5,0.7,0.7,1
		c0.2,0.4,0.2,0.7,0.2,1S48,15.9,47.6,16l-3.1,1l0,0c-0.1,0.2-0.2,0.4-0.4,0.6c-0.1,0.2-0.4,0.3-0.7,0.4c-0.1,0-0.2,0-0.3,0
		s-0.3,0-0.5-0.1c-0.2,0-0.3-0.1-0.5-0.1s-0.3,0-0.4,0c-0.1,0-0.3,0-0.6,0.1s-0.7,0.2-1.1,0.3s-0.8,0.2-1.1,0.3
		C38.5,18.6,38.2,18.7,38.1,18.7z M39,4.2c-0.3,0-0.5-0.1-0.7-0.2c-0.2-0.1-0.3-0.3-0.4-0.5c-0.1-0.2-0.2-0.4-0.2-0.6
		s-0.1-0.4-0.1-0.5c0-0.6,0.1-1.1,0.4-1.5c0.2-0.3,0.7-0.5,1.3-0.5c0.3,0,0.5,0.1,0.8,0.2c0.2,0.1,0.5,0.3,0.7,0.5s0.4,0.4,0.5,0.7
		s0.2,0.6,0.2,0.9s-0.1,0.5-0.3,0.7s-0.4,0.3-0.6,0.5c-0.2,0.1-0.5,0.2-0.8,0.3C39.4,4.2,39.1,4.2,39,4.2z"/>
	<path class="st0" d="M49,15.9c0-0.3,0.1-0.6,0.3-0.8c0-0.2-0.1-0.5-0.1-0.8s-0.1-0.5-0.1-0.6c-0.2-0.7-0.5-1.3-0.9-1.8
		s-0.8-1-1.1-1.4s-0.7-0.8-1-1.1s-0.4-0.7-0.4-1c0-0.5,0.2-0.9,0.6-1.3s0.9-0.7,1.5-1s1.1-0.5,1.7-0.7s1-0.3,1.4-0.4
		s0.8-0.2,1.3-0.3c0.5-0.1,1-0.1,1.4-0.1c0.5,0,0.9,0.1,1.4,0.2s0.9,0.3,1.3,0.6c0.4,0.3,0.7,0.6,1,1.1c0.3,0.4,0.4,1,0.4,1.6
		c0,0.4-0.2,0.9-0.6,1.4c0.5,0.1,1,0.3,1.5,0.4s1.1,0.4,1.5,0.7c0.5,0.3,0.9,0.6,1.2,1.1c0.3,0.4,0.5,0.9,0.5,1.5s-0.2,1.2-0.5,1.7
		s-0.8,0.9-1.3,1.3s-1.1,0.7-1.8,1s-1.3,0.5-2,0.7s-1.3,0.4-2,0.6s-1.1,0.3-1.6,0.5l0,0c-0.1,0-0.2,0.1-0.3,0.1s-0.2,0-0.3,0
		c-0.4,0-0.8-0.1-1.1-0.2s-0.7-0.4-1-0.6c-0.3-0.3-0.5-0.6-0.7-0.9C49.1,16.7,49,16.3,49,15.9z M50.7,9.4c0.3,0,0.8-0.1,1.5-0.3
		s1.5-0.7,2.3-1.4c-0.4-0.1-0.8-0.2-1.2-0.3c-0.4-0.1-0.9-0.1-1.3-0.1c-0.4,0-0.8,0.1-1.2,0.2s-0.7,0.3-1,0.6c0,0,0.1,0.1,0.1,0.3
		C50,8.6,50,8.7,50.1,8.9c0.1,0.2,0.2,0.3,0.3,0.4C50.5,9.3,50.6,9.4,50.7,9.4z M53.3,15.2c0.2,0,0.6-0.1,1.1-0.2
		c0.5-0.2,1.1-0.4,1.7-0.6c0.6-0.2,1.1-0.5,1.5-0.8c0.5-0.3,0.7-0.6,0.8-0.8c-0.2-0.2-0.6-0.4-1.3-0.5c-0.6-0.2-1.3-0.2-2.1-0.2
		c-0.7,0-1.4,0-2,0.1c-0.6,0-1.2,0.1-1.5,0.1c0.1,0.3,0.1,0.6,0.2,0.9c0.1,0.4,0.2,0.7,0.3,1s0.3,0.6,0.5,0.8
		C52.8,15.1,53.1,15.2,53.3,15.2z"/>
	<path class="st0" d="M61.5,17.2c0.1-0.6,0.1-1.1,0.1-1.6c0-0.7-0.1-1.6-0.4-2.8c-0.2-1.2-0.6-2.7-1-4.4c-0.3-0.2-0.6-0.5-0.7-0.9
		c-0.2-0.4-0.3-0.7-0.3-1.1s0.2-0.7,0.5-1s0.7-0.5,1.2-0.5c0.6,0,1,0.1,1.4,0.4S63,6,63.2,6.5s0.4,1,0.5,1.7c0.1,0.6,0.2,1.3,0.3,2
		s0.2,1.4,0.3,2.2c0.1,0.7,0.3,1.5,0.4,2.1c0.4-0.1,0.9-0.3,1.4-0.5s1.1-0.4,1.6-0.6c0.5-0.2,1.1-0.4,1.6-0.6c0.5-0.2,1-0.2,1.5-0.2
		c0.2,0,0.5,0,0.7,0.1s0.5,0.2,0.6,0.3c0.2,0.1,0.3,0.3,0.5,0.5c0.1,0.2,0.2,0.4,0.2,0.7s-0.1,0.5-0.2,0.8s-0.2,0.5-0.4,0.7
		c-0.2,0.1-0.6,0.2-1.1,0.3s-1.1,0.3-1.7,0.5s-1.1,0.3-1.7,0.5c-0.5,0.2-0.8,0.3-1,0.3c-0.3,0.1-0.5,0.2-0.7,0.4
		c-0.2,0.2-0.4,0.4-0.6,0.6s-0.4,0.4-0.6,0.6C64.6,19,64.3,19,64,19c-0.2,0-0.5,0-0.7-0.1s-0.5-0.2-0.7-0.4
		c-0.2-0.2-0.4-0.4-0.6-0.6C61.7,17.7,61.6,17.5,61.5,17.2z"/>
	<path class="st0" d="M72.4,18.1c-0.3-1.2-0.5-2.4-0.5-3.4s-0.2-2.1-0.4-3.1c-0.1-0.3-0.2-0.6-0.3-0.8c-0.2-0.2-0.3-0.5-0.5-0.8
		s-0.3-0.7-0.5-1.1C70,8.5,69.9,8,69.9,7.4c0-0.3,0.1-0.6,0.2-0.8c0.1-0.2,0.3-0.4,0.5-0.4c0.6-0.2,1.3-0.4,1.9-0.6s1.3-0.4,1.9-0.6
		s1.3-0.4,2-0.5s1.3-0.2,2-0.2c0.4,0,0.7,0.1,0.9,0.4c0.3,0.3,0.5,0.6,0.6,1s0.1,0.7,0,1s-0.4,0.5-0.7,0.5l-1,0.1
		c-0.3,0-0.7,0.1-1.2,0.2s-0.9,0.2-1.4,0.3c-0.5,0.1-0.9,0.2-1.3,0.3s-0.7,0.2-1,0.3c0.6,0.2,1.2,0.2,1.9,0.3s1.3,0.1,1.9,0.2
		c0.6,0.1,1.1,0.3,1.5,0.5c0.4,0.3,0.6,0.7,0.6,1.3c0,0.4-0.1,0.7-0.3,1.1s-0.6,0.5-1.1,0.5c-0.2,0-0.5,0-0.9-0.1s-0.7-0.2-1.1-0.3
		s-0.7-0.2-1.1-0.4c-0.3-0.1-0.6-0.2-0.8-0.3c0.2,0.7,0.3,1.3,0.4,1.8c0.1,0.6,0.2,1.1,0.3,1.5s0.1,0.8,0.2,1s0,0.4,0,0.4
		s0.1-0.1,0.4-0.2c0.2-0.1,0.5-0.3,0.9-0.4c0.4-0.2,0.8-0.3,1.2-0.5s0.9-0.4,1.3-0.5c0.4-0.2,0.9-0.3,1.2-0.4
		c0.4-0.1,0.7-0.2,0.9-0.2c0.6,0,1.2,0.1,1.6,0.4c0.5,0.3,0.7,0.8,0.7,1.4c0,0.5-0.1,0.8-0.4,1.1S81.9,17,81.2,17c-0.3,0-0.7,0-1,0
		s-0.7,0-1,0c-0.5,0.2-1,0.4-1.5,0.7c-0.5,0.3-0.9,0.6-1.3,0.9s-0.8,0.6-1.2,0.8c-0.4,0.2-0.7,0.3-1,0.3c-0.5,0-0.9-0.1-1.3-0.4
		C72.8,18.9,72.5,18.6,72.4,18.1z"/>
	<path d="M89.2,17.2c0.1-0.6,0.1-1.1,0.1-1.6c0-0.7-0.1-1.6-0.4-2.8c-0.2-1.2-0.6-2.7-1-4.4c-0.3-0.2-0.6-0.5-0.7-0.9
		c-0.2-0.4-0.3-0.7-0.3-1.1s0.2-0.7,0.5-1s0.7-0.5,1.2-0.5c0.6,0,1,0.1,1.4,0.4s0.7,0.7,0.9,1.1c0.2,0.5,0.4,1,0.5,1.7
		c0.1,0.6,0.2,1.3,0.3,2c0.1,0.7,0.2,1.4,0.3,2.2c0.1,0.7,0.3,1.5,0.4,2.1c0.4-0.1,0.9-0.3,1.4-0.5s1.1-0.4,1.6-0.6
		c0.5-0.2,1.1-0.4,1.6-0.6c0.5-0.2,1-0.2,1.5-0.2c0.2,0,0.5,0,0.7,0.1s0.5,0.2,0.6,0.3c0.2,0.1,0.3,0.3,0.5,0.5
		c0.1,0.2,0.2,0.4,0.2,0.7s-0.1,0.5-0.2,0.8s-0.2,0.5-0.4,0.7c-0.2,0.1-0.6,0.2-1.1,0.3s-1.1,0.3-1.7,0.5s-1.1,0.3-1.7,0.5
		s-0.8,0.3-1,0.3c-0.3,0.1-0.5,0.2-0.7,0.4s-0.4,0.4-0.6,0.6s-0.4,0.4-0.6,0.6C92.3,19,92,19,91.7,19c-0.2,0-0.5,0-0.7-0.1
		s-0.5-0.2-0.7-0.4c-0.2-0.2-0.4-0.4-0.6-0.6C89.4,17.7,89.3,17.5,89.2,17.2z"/>
	<path d="M98.4,13.5c-0.1-0.3-0.2-0.6-0.2-0.8c0-0.3,0-0.5,0-0.8c0-1,0.2-1.8,0.7-2.5s1.1-1.6,2.1-2.5c0.2-0.2,0.3-0.3,0.4-0.5
		s0.3-0.3,0.5-0.5s0.4-0.3,0.7-0.4c0.3-0.1,0.6-0.1,1.1-0.1c0.6,0,1.3,0.1,2,0.3c0.7,0.2,1.3,0.5,2,0.9s1.3,0.8,1.9,1.3
		s1.1,1,1.5,1.6c0.4,0.5,0.8,1.1,1,1.7c0.3,0.6,0.4,1.2,0.4,1.7c0,0.8-0.2,1.6-0.7,2.2c-0.5,0.6-1.1,1.1-1.8,1.5
		c-0.7,0.4-1.5,0.7-2.3,0.9c-0.8,0.2-1.6,0.3-2.2,0.3c-0.7,0-1.4-0.1-2.2-0.2c-0.7-0.2-1.4-0.4-2.1-0.7c-0.6-0.3-1.2-0.7-1.7-1.3
		C98.9,14.8,98.6,14.2,98.4,13.5z M101.2,12.8c0.2,0.6,0.5,1,1,1.3c0.5,0.2,1,0.3,1.6,0.3c0.4,0,0.9,0,1.5-0.1s1.1-0.2,1.7-0.4
		s1.1-0.4,1.5-0.6s0.8-0.5,1-0.9c-0.1-0.3-0.3-0.7-0.5-1.1c-0.2-0.4-0.5-0.8-0.8-1.2s-0.7-0.7-1-0.9c-0.4-0.2-0.7-0.4-1-0.4
		c-0.2,0-0.4,0.1-0.6,0.2c-0.2,0.1-0.4,0.2-0.6,0.4c-0.2,0.1-0.4,0.3-0.7,0.4c-0.3,0.1-0.6,0.2-0.9,0.2c-0.2,0-0.3,0-0.4,0
		s-0.2,0-0.1,0c-0.5,0.2-0.9,0.5-1.2,1c-0.3,0.5-0.4,1-0.4,1.5c0,0.1,0,0.2,0,0.2C101.1,12.7,101.1,12.8,101.2,12.8z"/>
	<path d="M115.8,14.4c-0.5-0.7-1-1.4-1.5-1.9s-1.1-1-1.6-1.4s-1-0.8-1.5-1.2S110.3,9,110,8.5c-0.1-0.2-0.1-0.4,0-0.6
		c0-0.2,0.1-0.4,0.3-0.5c0.1-0.2,0.3-0.3,0.4-0.4c0.2-0.1,0.4-0.2,0.6-0.2c0.3,0,0.6,0.1,0.9,0.2c0.3,0.2,0.6,0.3,0.9,0.5
		s0.6,0.4,0.8,0.6c0.2,0.2,0.4,0.4,0.6,0.5c0.1,0.1,0.2,0.2,0.5,0.5s0.5,0.6,0.9,0.9c0.3,0.3,0.7,0.7,1,1s0.6,0.7,0.9,0.9
		c0.2-0.3,0.3-0.7,0.5-1.2s0.4-0.9,0.6-1.4s0.3-1,0.4-1.5s0.2-1,0.2-1.4c0-0.9,0.1-1.7,0.4-2.3s0.7-0.9,1.4-0.9c0.1,0,0.2,0,0.4,0
		s0.3,0.1,0.4,0.1s0.2,0.1,0.3,0.2c0.1,0.1,0.1,0.2,0.1,0.4c0,0.5-0.1,1.1-0.2,2C122.2,7,122,8,121.8,9s-0.5,2-0.7,3.1
		c-0.3,1-0.5,2-0.8,2.9s-0.5,1.6-0.7,2.1c-0.2,0.6-0.4,0.9-0.5,0.9c-0.2,0.1-0.4,0.1-0.6,0.1c-0.5,0-0.8-0.1-1.1-0.4s-0.5-0.6-0.6-1
		c-0.2-0.4-0.3-0.8-0.4-1.2S116,14.7,115.8,14.4z"/>
	<path d="M124.5,18.1c-0.3-1.2-0.5-2.4-0.5-3.4s-0.2-2.1-0.4-3.1c-0.1-0.3-0.2-0.6-0.3-0.8c-0.2-0.2-0.3-0.5-0.5-0.8
		s-0.3-0.7-0.5-1.1C122.1,8.5,122,8,122,7.4c0-0.3,0.1-0.6,0.2-0.8c0.1-0.2,0.3-0.4,0.5-0.4c0.6-0.2,1.3-0.4,1.9-0.6
		s1.3-0.4,1.9-0.6s1.3-0.4,2-0.5s1.3-0.2,2-0.2c0.4,0,0.7,0.1,0.9,0.4c0.3,0.3,0.5,0.6,0.6,1s0.1,0.7,0,1s-0.4,0.5-0.7,0.5l-1,0.1
		c-0.3,0-0.7,0.1-1.2,0.2s-0.9,0.2-1.4,0.3c-0.5,0.1-0.9,0.2-1.3,0.3s-0.7,0.2-1,0.3c0.6,0.2,1.2,0.2,1.9,0.3
		c0.7,0.1,1.3,0.1,1.9,0.2c0.6,0.1,1.1,0.3,1.5,0.5c0.4,0.3,0.6,0.7,0.6,1.3c0,0.4-0.1,0.7-0.3,1.1s-0.6,0.5-1.1,0.5
		c-0.2,0-0.5,0-0.9-0.1s-0.7-0.2-1.1-0.3s-0.7-0.2-1.1-0.4c-0.3-0.1-0.6-0.2-0.8-0.3c0.2,0.7,0.3,1.3,0.4,1.8
		c0.1,0.6,0.2,1.1,0.3,1.5s0.1,0.8,0.2,1s0,0.4,0,0.4s0.1-0.1,0.4-0.2c0.2-0.1,0.5-0.3,0.9-0.4c0.4-0.2,0.8-0.3,1.2-0.5
		s0.9-0.4,1.3-0.5c0.4-0.2,0.9-0.3,1.2-0.4c0.4-0.1,0.7-0.2,0.9-0.2c0.6,0,1.2,0.1,1.6,0.4c0.5,0.3,0.7,0.8,0.7,1.4
		c0,0.5-0.1,0.8-0.4,1.1S134,17,133.3,17c-0.3,0-0.7,0-1,0s-0.7,0-1,0c-0.5,0.2-1,0.4-1.5,0.7c-0.5,0.3-0.9,0.6-1.3,0.9
		s-0.8,0.6-1.2,0.8c-0.4,0.2-0.7,0.3-1,0.3c-0.5,0-0.9-0.1-1.3-0.4C124.9,18.9,124.6,18.6,124.5,18.1z"/>
</g>
<g>
	<path class="st0" d="M3.8,25.5c0,1,0.7,1.5,1.4,1.5c0.5,0,0.9-0.1,1.2-0.2l0.1,0.5c-0.3,0.1-0.7,0.3-1.4,0.3
		c-1.3,0-2.1-0.9-2.1-2.1c0-1.3,0.8-2.3,2-2.3c1.4,0,1.7,1.2,1.7,2c0,0.2,0,0.3,0,0.4L3.8,25.5L3.8,25.5z M6.1,24.9
		c0-0.5-0.2-1.2-1.1-1.2c-0.8,0-1.1,0.7-1.2,1.2H6.1z"/>
	<path class="st0" d="M8.1,23.2l0.6,0.9c0.2,0.2,0.3,0.5,0.4,0.7l0,0c0.1-0.3,0.3-0.5,0.4-0.7l0.6-0.9H11l-1.4,2l1.5,2.2h-0.9
		l-0.6-1c-0.2-0.2-0.3-0.5-0.5-0.7l0,0C9,26,8.8,26.2,8.7,26.4l-0.6,1H7.2l1.5-2.2l-1.4-2.1h0.8V23.2z"/>
	<path class="st0" d="M12.8,22v1.2h1.1v0.6h-1.1v2.3c0,0.5,0.1,0.8,0.6,0.8c0.2,0,0.3,0,0.4-0.1v0.6c-0.1,0.1-0.4,0.1-0.7,0.1
		c-0.4,0-0.6-0.1-0.8-0.3C12.1,27,12,26.6,12,26.1v-2.3h-0.7v-0.6H12v-1L12.8,22z"/>
	<path class="st0" d="M15.1,25.5c0,1,0.7,1.5,1.4,1.5c0.5,0,0.9-0.1,1.2-0.2l0.1,0.5c-0.3,0.1-0.7,0.3-1.4,0.3
		c-1.3,0-2.1-0.9-2.1-2.1c0-1.3,0.8-2.3,2-2.3c1.4,0,1.7,1.2,1.7,2c0,0.2,0,0.3,0,0.4L15.1,25.5L15.1,25.5z M17.4,24.9
		c0-0.5-0.2-1.2-1.1-1.2c-0.8,0-1.1,0.7-1.2,1.2H17.4z"/>
	<path class="st0" d="M19.1,24.4c0-0.4,0-0.8,0-1.1h0.7V24l0,0c0.2-0.4,0.7-0.8,1.4-0.8c0.6,0,1.5,0.3,1.5,1.8v2.5h-0.8V25
		c0-0.7-0.3-1.2-1-1.2c-0.5,0-0.9,0.4-1,0.8c0,0.1-0.1,0.2-0.1,0.4v2.5H19L19.1,24.4L19.1,24.4z"/>
	<path class="st0" d="M27.6,21.2v5.1c0,0.4,0,0.8,0,1.1h-0.7v-0.7l0,0c-0.2,0.5-0.8,0.8-1.4,0.8c-1,0-1.8-0.9-1.8-2.1
		c0-1.4,0.9-2.3,1.9-2.3c0.6,0,1.1,0.3,1.3,0.6l0,0v-2.5H27.6z M26.8,24.9c0-0.1,0-0.2,0-0.3c-0.1-0.5-0.5-0.9-1.1-0.9
		c-0.8,0-1.3,0.7-1.3,1.6s0.4,1.6,1.2,1.6c0.5,0,1-0.3,1.1-0.9c0-0.1,0-0.2,0-0.3L26.8,24.9L26.8,24.9z"/>
	<path class="st0" d="M31.2,27.4l-0.1-0.5l0,0c-0.2,0.3-0.7,0.6-1.3,0.6c-0.9,0-1.3-0.6-1.3-1.2c0-1,0.9-1.6,2.5-1.6v-0.1
		c0-0.3-0.1-1-1-1c-0.4,0-0.8,0.1-1.1,0.3l-0.2-0.5c0.3-0.2,0.9-0.4,1.4-0.4c1.3,0,1.6,0.9,1.6,1.7v1.6c0,0.4,0,0.7,0.1,1h-0.6V27.4
		z M31.1,25.3c-0.8,0-1.8,0.1-1.8,1c0,0.5,0.3,0.7,0.7,0.7c0.5,0,0.9-0.3,1-0.7c0-0.1,0-0.2,0-0.2L31.1,25.3L31.1,25.3z"/>
	<path class="st0" d="M33,27.4c0-0.3,0-0.7,0-1.1v-5.1h0.8v2.7l0,0c0.3-0.5,0.8-0.8,1.4-0.8c1,0,1.8,0.9,1.8,2.2
		c0,1.5-1,2.3-1.9,2.3c-0.6,0-1.1-0.2-1.4-0.8l0,0v0.7H33V27.4z M33.8,25.7c0,0.1,0,0.2,0,0.3c0.1,0.5,0.6,0.9,1.2,0.9
		c0.8,0,1.3-0.7,1.3-1.6c0-0.8-0.4-1.6-1.3-1.6c-0.5,0-1,0.4-1.2,0.9c0,0.1,0,0.2,0,0.3V25.7z"/>
	<path class="st0" d="M38,21.2h0.8v6.2H38V21.2z"/>
	<path class="st0" d="M40.5,25.5c0,1,0.7,1.5,1.4,1.5c0.5,0,0.9-0.1,1.2-0.2l0.1,0.5c-0.3,0.1-0.7,0.3-1.4,0.3
		c-1.3,0-2.1-0.9-2.1-2.1c0-1.3,0.8-2.3,2-2.3c1.4,0,1.7,1.2,1.7,2c0,0.2,0,0.3,0,0.4L40.5,25.5L40.5,25.5z M42.8,24.9
		c0-0.5-0.2-1.2-1.1-1.2c-0.8,0-1.1,0.7-1.2,1.2H42.8z"/>
	<path class="st0" d="M46.3,24.6c0-0.5,0-1,0-1.4H47v0.7l0,0c0.3-0.5,0.8-0.8,1.5-0.8c1,0,1.8,0.9,1.8,2.1c0,1.5-0.9,2.3-1.9,2.3
		c-0.6,0-1-0.2-1.3-0.7l0,0v2.3h-0.8V24.6z M47.1,25.7c0,0.1,0,0.2,0,0.3c0.1,0.5,0.6,0.9,1.2,0.9c0.8,0,1.3-0.7,1.3-1.6
		c0-0.8-0.4-1.6-1.3-1.6c-0.5,0-1,0.4-1.2,1c0,0.1-0.1,0.2-0.1,0.3L47.1,25.7L47.1,25.7z"/>
	<path class="st0" d="M51.3,24.5c0-0.5,0-0.9,0-1.3H52V24l0,0c0.2-0.6,0.7-0.9,1.2-0.9c0.1,0,0.1,0,0.2,0v0.7c-0.1,0-0.2,0-0.3,0
		c-0.5,0-0.9,0.4-1,1c0,0.1,0,0.2,0,0.4v2.3h-0.8C51.3,27.5,51.3,24.5,51.3,24.5z"/>
	<path class="st0" d="M57.9,25.3c0,1.6-1.1,2.2-2.1,2.2c-1.1,0-2-0.8-2-2.2c0-1.4,0.9-2.2,2.1-2.2C57,23.1,57.9,24,57.9,25.3z
		 M54.5,25.3c0,0.9,0.5,1.6,1.3,1.6c0.7,0,1.3-0.7,1.3-1.6c0-0.7-0.4-1.6-1.3-1.6C54.9,23.7,54.5,24.5,54.5,25.3z"/>
	<path class="st0" d="M59.1,23.2l0.8,2.4c0.1,0.4,0.3,0.7,0.3,1.1l0,0c0.1-0.3,0.2-0.7,0.4-1.1l0.8-2.4h0.8l-1.7,4.2h-0.7l-1.6-4.2
		H59.1z"/>
	<path class="st0" d="M63.3,25.5c0,1,0.7,1.5,1.4,1.5c0.5,0,0.9-0.1,1.2-0.2l0.1,0.5c-0.3,0.1-0.7,0.3-1.4,0.3
		c-1.3,0-2.1-0.9-2.1-2.1c0-1.3,0.8-2.3,2-2.3c1.4,0,1.7,1.2,1.7,2c0,0.2,0,0.3,0,0.4L63.3,25.5L63.3,25.5z M65.6,24.9
		c0-0.5-0.2-1.2-1.1-1.2c-0.8,0-1.1,0.7-1.2,1.2H65.6z"/>
	<path class="st0" d="M67.2,24.4c0-0.4,0-0.8,0-1.1h0.7V24l0,0c0.2-0.4,0.7-0.8,1.4-0.8c0.6,0,1.5,0.3,1.5,1.8v2.5H70V25
		c0-0.7-0.3-1.2-1-1.2c-0.5,0-0.9,0.4-1,0.8c0,0.1-0.1,0.2-0.1,0.4v2.5h-0.8v-3.1H67.2z"/>
	<path class="st0" d="M74.4,27.4l-0.1-0.5l0,0c-0.2,0.3-0.7,0.6-1.3,0.6c-0.9,0-1.3-0.6-1.3-1.2c0-1,0.9-1.6,2.5-1.6v-0.1
		c0-0.3-0.1-1-1-1c-0.4,0-0.8,0.1-1.1,0.3l-0.2-0.5c0.3-0.2,0.9-0.4,1.4-0.4c1.3,0,1.6,0.9,1.6,1.7v1.6c0,0.4,0,0.7,0.1,1h-0.6V27.4
		z M74.3,25.3c-0.8,0-1.8,0.1-1.8,1c0,0.5,0.3,0.7,0.7,0.7c0.5,0,0.9-0.3,1-0.7c0-0.1,0-0.2,0-0.2v-0.8H74.3z"/>
	<path class="st0" d="M76.3,24.4c0-0.4,0-0.8,0-1.1H77V24l0,0c0.2-0.4,0.7-0.8,1.4-0.8c0.6,0,1.5,0.3,1.5,1.8v2.5h-0.8V25
		c0-0.7-0.3-1.2-1-1.2c-0.5,0-0.9,0.4-1,0.8c0,0.1-0.1,0.2-0.1,0.4v2.5h-0.8v-3.1H76.3z"/>
	<path class="st0" d="M84.1,27.3c-0.2,0.1-0.6,0.2-1.2,0.2c-1.3,0-2.1-0.9-2.1-2.2c0-1.3,0.9-2.2,2.3-2.2c0.5,0,0.9,0.1,1.1,0.2
		L84,23.9c-0.2-0.1-0.5-0.2-0.9-0.2c-1,0-1.5,0.7-1.5,1.6c0,1,0.6,1.6,1.5,1.6c0.4,0,0.7-0.1,0.9-0.2L84.1,27.3z"/>
	<path class="st0" d="M85.4,25.5c0,1,0.7,1.5,1.4,1.5c0.5,0,0.9-0.1,1.2-0.2l0.1,0.5c-0.3,0.1-0.7,0.3-1.4,0.3
		c-1.3,0-2.1-0.9-2.1-2.1c0-1.3,0.8-2.3,2-2.3c1.4,0,1.7,1.2,1.7,2c0,0.2,0,0.3,0,0.4L85.4,25.5L85.4,25.5z M87.7,24.9
		c0-0.5-0.2-1.2-1.1-1.2c-0.8,0-1.1,0.7-1.2,1.2H87.7z"/>
	<path d="M91.3,27.4v-3.6h-0.6v-0.6h0.6V23c0-0.6,0.1-1.1,0.5-1.5c0.3-0.3,0.7-0.4,1-0.4s0.5,0.1,0.7,0.1l-0.1,0.6
		c-0.1-0.1-0.3-0.1-0.5-0.1c-0.7,0-0.8,0.6-0.8,1.2v0.2h1v0.6h-1v3.6L91.3,27.4L91.3,27.4z"/>
	<path d="M97.5,25.3c0,1.6-1.1,2.2-2.1,2.2c-1.1,0-2-0.8-2-2.2c0-1.4,0.9-2.2,2.1-2.2C96.7,23.1,97.5,24,97.5,25.3z M94.1,25.3
		c0,0.9,0.5,1.6,1.3,1.6c0.7,0,1.3-0.7,1.3-1.6c0-0.7-0.4-1.6-1.3-1.6C94.5,23.7,94.1,24.5,94.1,25.3z"/>
	<path d="M98.4,24.5c0-0.5,0-0.9,0-1.3h0.7V24l0,0c0.2-0.6,0.7-0.9,1.2-0.9c0.1,0,0.1,0,0.2,0v0.7c-0.1,0-0.2,0-0.3,0
		c-0.5,0-0.9,0.4-1,1c0,0.1,0,0.2,0,0.4v2.3h-0.8L98.4,24.5L98.4,24.5z"/>
	<path d="M103.4,23.2l0.9,2.5c0.1,0.3,0.2,0.6,0.3,0.9l0,0c0.1-0.3,0.2-0.6,0.3-0.9l0.8-2.5h0.8l-1.2,3c-0.5,1.4-0.9,2.2-1.4,2.6
		c-0.4,0.3-0.8,0.5-0.9,0.5l-0.2-0.6c0.2-0.1,0.4-0.2,0.7-0.4c0.2-0.2,0.5-0.5,0.6-0.9c0-0.1,0.1-0.1,0.1-0.2s0-0.1-0.1-0.2
		l-1.6-3.9h0.9V23.2z"/>
	<path d="M111,25.3c0,1.6-1.1,2.2-2.1,2.2c-1.1,0-2-0.8-2-2.2c0-1.4,0.9-2.2,2.1-2.2C110.2,23.1,111,24,111,25.3z M107.6,25.3
		c0,0.9,0.5,1.6,1.3,1.6c0.7,0,1.3-0.7,1.3-1.6c0-0.7-0.4-1.6-1.3-1.6C108,23.7,107.6,24.5,107.6,25.3z"/>
	<path d="M115.5,26.3c0,0.4,0,0.8,0,1.2h-0.7v-0.7l0,0c-0.2,0.3-0.6,0.8-1.4,0.8c-0.7,0-1.5-0.4-1.5-1.8v-2.5h0.8v2.3
		c0,0.8,0.2,1.3,0.9,1.3c0.5,0,0.9-0.4,1-0.7c0-0.1,0.1-0.3,0.1-0.4v-2.6h0.8C115.5,23.2,115.5,26.3,115.5,26.3z"/>
	<path d="M116.8,24.5c0-0.5,0-0.9,0-1.3h0.7V24l0,0c0.2-0.6,0.7-0.9,1.2-0.9c0.1,0,0.1,0,0.2,0v0.7c-0.1,0-0.2,0-0.3,0
		c-0.5,0-0.9,0.4-1,1c0,0.1,0,0.2,0,0.4v2.3h-0.8L116.8,24.5L116.8,24.5z"/>
	<path d="M121.5,24.4c0-0.4,0-0.8,0-1.1h0.7V24l0,0c0.2-0.4,0.7-0.8,1.4-0.8c0.6,0,1.5,0.3,1.5,1.8v2.5h-0.8V25c0-0.7-0.3-1.2-1-1.2
		c-0.5,0-0.9,0.4-1,0.8c0,0.1-0.1,0.2-0.1,0.4v2.5h-0.8v-3.1H121.5z"/>
	<path d="M126.4,27.4v-3.6h-0.6v-0.6h0.6V23c0-0.6,0.1-1.1,0.5-1.5c0.3-0.3,0.7-0.4,1-0.4c0.3,0,0.5,0.1,0.7,0.1l-0.1,0.6
		c-0.1-0.1-0.3-0.1-0.5-0.1c-0.7,0-0.8,0.6-0.8,1.2v0.2h1v0.6h-1v3.6L126.4,27.4L126.4,27.4z"/>
	<path d="M129.9,22v1.2h1.1v0.6h-1.1v2.3c0,0.5,0.1,0.8,0.6,0.8c0.2,0,0.3,0,0.4-0.1v0.6c-0.1,0.1-0.4,0.1-0.7,0.1
		c-0.4,0-0.6-0.1-0.8-0.3c-0.2-0.2-0.3-0.6-0.3-1.1v-2.3h-0.7v-0.6h0.7v-1L129.9,22z"/>
</g>
</svg>
